<svg xmlns="http://www.w3.org/2000/svg" viewBox="0 0 320 220" role="img" aria-label="玉石类插画">
  <rect width="320" height="220" rx="8" fill="#f4fff8"/>
  <path d="M70 112c0-52 42-88 92-88s88 35 88 84c0 53-42 88-94 88-50 0-86-34-86-84Z" fill="#89e2b2" stroke="#134d30" stroke-width="6"/>
  <path d="M106 110c0-29 24-50 54-50s54 21 54 50-24 50-54 50-54-21-54-50Z" fill="#f7fff9" stroke="#2d8a59" stroke-width="5"/>
  <path d="M96 68c24 8 38 10 56 1M202 150c-17 10-38 14-62 9" stroke="#1f9b61" stroke-width="6" stroke-linecap="round"/>
  <circle cx="229" cy="54" r="8" fill="#ffd447"/>
</svg>
